<svg data-v-0dd9719b="" version="1.0" xmlns="http://www.w3.org/2000/svg" xmlns:xlink="http://www.w3.org/1999/xlink" width="100%" height="100%" viewBox="0 0 340.000000 250.000000" preserveAspectRatio="xMidYMid meet" color-interpolation-filters="sRGB" style="margin: auto;"> <rect data-v-0dd9719b="" x="0" y="0" width="100%" height="100%" fill="#ffffff" fill-opacity="1" class="background"></rect> <rect data-v-0dd9719b="" x="0" y="0" width="100%" height="100%" fill="url(#watermark)" fill-opacity="1" class="watermarklayer"></rect> <g data-v-0dd9719b="" fill="#333333" class="icon-text-wrapper icon-svg-group iconsvg" transform="translate(49.590003967285156,96.3487491607666)"><g class="iconsvg-imagesvg" transform="translate(0,6.199916839599609)"><g><rect fill="#333333" fill-opacity="0" stroke-width="2" x="0" y="0" width="60" height="30.90266690015348" class="image-rect"></rect> <svg filter="url(#colors401815295)" x="0" y="0" width="60" height="30.90266690015348" filtersec="colorsf3786429182" class="image-svg-svg primary" style="overflow: visible;"><svg xmlns="http://www.w3.org/2000/svg" xmlns:xlink="http://www.w3.org/1999/xlink" version="1.1" x="0px" y="0px" viewBox="5.000345230102539 26.828914642333984 90.00215148925781 46.3551139831543" enable-background="new 0 0 100 100" xml:space="preserve"><path fill-rule="evenodd" clip-rule="evenodd" d="M49.97,46.245c0.978,0,1.772,0.794,1.772,1.772c0,0.978-0.794,1.757-1.772,1.757  c-0.978,0-1.757-0.779-1.757-1.757C48.213,47.04,48.992,46.245,49.97,46.245L49.97,46.245z M41.584,45.833  c3.987,0,7.256,3.269,7.256,7.256c0,4.002-3.269,7.256-7.256,7.256c-4.002,0-7.256-3.254-7.256-7.256  C34.328,49.102,37.582,45.833,41.584,45.833L41.584,45.833z M77.695,57.137c-3.513-8.417-12.511-13.626-24.976-13.32  c2.108,2.52,3.376,5.744,3.376,9.272c0,7.989-6.523,14.512-14.512,14.512s-14.512-6.523-14.512-14.512  c0.428-3.315,0.367-4.323,1.925-7.103c-9.792,1.741-16.436,6.966-21.447,12.22c-0.351,0.382,3.284,3.666-0.046,4.369  c-2.948,0.626-2.795-2.719-2.032-3.987C16.043,34.59,86.967,22.767,77.695,57.137L77.695,57.137z M80.338,60.925  c-4.079-1.543-13.656,7.882-27.664,9.624c-12.602,1.573-31.162-0.153-41.137-6.4c0.29,1.069,1.329,2.139,2.688,2.826  C34.206,77.239,73.357,74.474,80.338,60.925L80.338,60.925z M7.428,50.339c13.366-16.574,74.056-29.726,85.467-6.049  c0.321,0.183-2.337,1.115-0.137,2.688c1.604,1.13,2.734-1.925,2.032-2.505C83.317,14.06,23.788,28.159,9.001,47.91  C8.405,48.705,7.871,49.514,7.428,50.339L7.428,50.339z"></path></svg></svg> <defs><filter id="colors401815295"><feColorMatrix type="matrix" values="0 0 0 0 0.08203125  0 0 0 0 0.5078125  0 0 0 0 0.77734375  0 0 0 1 0" class="icon-fecolormatrix"></feColorMatrix></filter> <filter id="colorsf3786429182"><feColorMatrix type="matrix" values="0 0 0 0 0.99609375  0 0 0 0 0.99609375  0 0 0 0 0.99609375  0 0 0 1 0" class="icon-fecolormatrix"></feColorMatrix></filter> <filter id="colorsb7916241437"><feColorMatrix type="matrix" values="0 0 0 0 0  0 0 0 0 0  0 0 0 0 0  0 0 0 1 0" class="icon-fecolormatrix"></feColorMatrix></filter></defs></g></g> <g transform="translate(65,0)"><g data-gra="path-name" fill-rule="" class="tp-name iconsvg-namesvg" transform="translate(0,0)"><g transform="scale(1)"><g><path d="M15.12-10.35C14.04-11.65 11.52-14.13 9.86-15.57L34.24-15.57C32.8-13.9 30.42-11.38 28.98-10.08L33.62-5.44C35.32-7.25 38.16-10.13 39.73-11.92L35.77-15.57 39.15-15.57 39.15-35.46 4.95-35.46 4.95-29.52 31.95-29.52 31.95-27.4 5.71-27.4 5.71-22.95 31.95-22.95 31.95-20.88 4.54-20.88 4.54-15.57 8.37-15.57 4.46-11.79C6.12-10.21 9.13-7.06 10.44-5.4ZM25.65-10.26C25.7-10.75 25.7-11.25 25.7-11.74L25.7-14.94 18.45-14.94 18.45-12.64C18.45-7.38 13.86-4.18 0.94-2.02L5 5.44C13.32 3.46 18.86 0.94 22.09-2.48 25.43 1.44 30.51 3.42 39.91 5.44L43.11-2.21C32.13-3.73 27.68-5.85 25.65-10.26ZM69.84-22.63C72.85-22.86 77.49-23.18 81.09-23.31L82.3-20.97 87.61-24.48C85.59-28.21 82.39-32.94 80.59-35.19L75.87-32.45C76.36-31.72 77-30.64 77.72-29.38 75.87-29.25 74.02-29.16 72.41-29.11 74.34-31.54 76.95-35.1 77.8-36.54L69.93-36.81C68.72-34.83 67.36-32.76 65.97-31.14 64.57-29.65 63.67-29.07 61.92-28.57L63.67-22.05C64.94-22.23 67.14-22.45 69.84-22.63ZM79.16-12.06L85.95-12.06 85.95-18.68 79.16-18.68 79.16-21.64 72.45-21.64 72.45-18.68 69.75-18.68 70.16-20.75 64.75-21.78C64.39-19.04 63.13-14.49 61.92-11.47L61.92-35.37 47.7-35.37 47.7 3.33 61.92 3.33 61.92-11.12 67.23-9.45C67.54-10.21 67.77-11.12 68.08-12.06L72.45-12.06 72.45-9 63.18-9 63.18-1.89 72.45-1.89 72.45 5.13 79.16 5.13 79.16-1.89 87.34-1.89 87.34-9 79.16-9ZM56.47-28.57L56.47-24.43 53.64-24.43 53.64-28.57ZM56.47-18.04L56.47-14.13 53.64-14.13 53.64-18.04ZM53.64-3.6L53.64-7.79 56.47-7.79 56.47-3.6ZM122.89-3.73L131.04-3.73 131.04-8.64 122.89-8.64 122.89-10.53 130.09-10.53 130.09-14.89 122.89-14.89 122.89-16.74 129.78-16.74 129.78-22.18 131.17-22.18 131.17-28.26 129.78-28.26 129.78-34.52 122.89-34.52 122.89-36.49 116.5-36.67 116.5-34.52 112.81-34.52 112.81-29.52 116.5-29.52 116.5-27.68 111.96-27.68 111.96-22.81 116.5-22.77 116.5-20.97 112.77-20.97 112.77-16.74 116.5-16.74 116.5-14.89 112.36-14.89 112.36-10.53 116.5-10.53 116.5-8.64 111.6-8.64 111.6-3.73 116.5-3.73 116.5-1.89C112.95-2.02 111.01-2.56 109.26-4.72 110.29-7.83 110.79-11.43 111.15-16.65L111.15-22.81 107.14-22.81 111.38-28.75 111.38-35.28 101.11-35.28 101.11-28.89 104.49-28.89 100.53-23.09 100.53-17.32 106.16-17.32C106.02-15.03 105.79-12.73 105.44-10.98L105.3-10.62C104.71-12.11 104.17-13.77 103.72-15.57L99.41-13.23C100.08-9.81 101.02-7.11 102.15-4.81 101.29-3.33 100.26-1.89 99.04-0.54L99.04-27.99C99.72-30.15 100.26-32.49 100.75-35.14L94.23-36.54C93.64-31.63 91.53-26.01 89.82-22L90.77-11.34C91.62-12.55 92.29-13.68 93.02-14.8L93.02 5.17 99.04 5.17 99.04 1.35 103.68 4.95C104.8 3.51 105.75 2.21 106.51 0.94 109.39 3.33 112.59 4.14 115.83 4.27 120.69 4.46 125.64 4.32 130.5 4.14L131.89-1.84C128.88-1.75 125.86-1.71 122.89-1.71ZM125.46-29.52L125.46-27.36 122.89-27.36 122.89-29.52ZM122.89-22.99L125.46-23.04 125.46-20.97 122.89-20.97ZM104.67-10.17C104.67-10.13 104.63-10.08 104.63-10.04 104.63-10.08 104.63-10.13 104.67-10.17ZM175.77-8.01L173.25-10.75 173.25-15.71 175.68-15.71 175.68-21.55 173.25-21.55 173.25-26.59 163.21-26.59 163.21-28.13 175.81-28.13 175.81-34.42 162.49-34.42 161.82-36.67 153.54-36.67 154.26-34.42 138.64-34.42 138.64-16.25C138.64-7.65 137.34-3.6 134.73 1.75L141.43 5.08C142.29 2.97 143.05 1.03 143.64-0.94L146.88 4.46 152.73 0.27 154.48 5.54 157.32 5.08C161.82 4.37 163.21 4 163.21-0.18L163.21-2.25C165.87 0.58 169.06 2.88 173.2 5L176.76-1.13C174.46-1.98 172.44-2.92 170.64-4ZM156.6-28.13L156.6-26.59 147.1-26.59 147.1-22 156.6-22 156.6-20.93 145.62-20.93 145.62-28.13ZM166.81-22L166.81-20.65 163.21-20.65 163.21-22ZM163.21-16.79L166.81-16.79 166.81-15.03 163.21-15.03ZM143.82-1.48C144.9-5.22 145.48-9.63 145.62-16.47L156.6-16.47 156.6-15.03 146.2-15.03 146.2-10.71 147.73-10.71 145.62-8.5C146.88-7.29 148.45-5.76 149.49-4.54 147.55-3.46 145.66-2.38 143.82-1.48ZM156.6-8.78C154.84-7.69 152.86-6.48 150.75-5.26L153.18-8.1C152.41-9.04 151.47-9.86 150.52-10.71L156.6-10.71ZM169.69-10.71C168.57-9.67 167.17-8.55 165.96-7.51 165.01-8.46 164.2-9.54 163.53-10.71ZM153.36-0.22L156.6-2.52C156.6-0.77 156.37-0.67 154.84-0.45Z" transform="translate(-0.940000057220459, 36.810001373291016)"></path></g> <!----> <!----> <!----> <!----> <!----> <!----> <!----></g></g> <g data-gra="path-slogan" fill-rule="" class="tp-slogan iconsvg-slogansvg" fill="#333333" transform="translate(5,48.35000228881836)"><rect x="0" height="1" y="3.9750003814697266" width="27.664997100830078"></rect> <rect height="1" y="3.9750003814697266" width="27.664997100830078" x="138.1549949645996"></rect> <g transform="translate(30.664997100830078,0)"><g transform="scale(1)"><path d="M0.89-8.58L2.06-8.58L2.06-1.03L6.42-1.03L6.42 0L0.89 0L0.89-8.58ZM7.73-8.58L8.91-8.58L8.91 0L7.73 0L7.73-8.58ZM12.28-8.58L16.59-1.64L16.59-8.58L17.72-8.58L17.72 0L16.41 0L12.05-6.94L12-6.94L12 0L10.88 0L10.88-8.58L12.28-8.58ZM25.92-3.61L23.30-3.61L23.30-4.59L27.05-4.59L27.05 0L26.30 0L26.02-1.08Q25.03 0.09 23.20 0.14L23.20 0.14Q21.47 0.14 20.53-0.75L20.53-0.75Q19.13-2.06 19.17-4.36L19.17-4.36Q19.50-8.63 23.25-8.81L23.25-8.81Q26.44-8.63 26.91-6L26.91-6L25.78-6Q25.31-7.78 23.20-7.83L23.20-7.83Q20.53-7.64 20.39-4.31L20.39-4.31Q20.39-0.75 23.25-0.75L23.25-0.75Q24.28-0.75 25.03-1.31L25.03-1.31Q25.97-2.06 25.92-3.61L25.92-3.61ZM37.08-8.58L37.08 0L35.95 0L35.95-5.06Q35.95-5.77 35.95-7.22L35.95-7.22L33.52 0L32.34 0L29.95-7.22L29.91-7.22Q29.91-6.70 29.95-5.67L29.95-5.67Q29.95-5.16 29.95-5.06L29.95-5.06L29.95 0L28.78 0L28.78-8.58L30.47-8.58L32.95-1.31L35.39-8.58L37.08-8.58ZM45.56-4.27L45.56-4.27Q45.38-7.64 42.56-7.83L42.56-7.83Q39.70-7.69 39.56-4.27L39.56-4.27Q39.70-0.94 42.56-0.80L42.56-0.80Q45.38-0.98 45.56-4.27ZM46.73-4.27L46.73-4.27Q46.45 0 42.56 0.14L42.56 0.14Q38.63 0 38.34-4.27L38.34-4.27Q38.58-8.72 42.56-8.81L42.56-8.81Q46.45-8.67 46.73-4.27ZM53.77-3.19L53.77-8.58L54.94-8.58L54.94-3.05Q54.80 0.05 51.42 0.14L51.42 0.14Q48.28 0.05 48.14-2.86L48.14-2.86L48.14-8.58L49.31-8.58L49.31-3.19Q49.36-0.84 51.47-0.80L51.47-0.80Q53.77-0.84 53.77-3.19L53.77-3.19ZM61.22-5.06L65.72-5.06L65.72-8.58L66.89-8.58L66.89 0L65.72 0L65.72-3.98L61.22-3.98L61.22 0L60.05 0L60.05-8.58L61.22-8.58L61.22-5.06ZM69.98-1.03L75.14-1.03L75.14 0L68.81 0L68.81-8.58L75.05-8.58L75.05-7.59L69.98-7.59L69.98-4.92L74.67-4.92L74.67-3.89L69.98-3.89L69.98-1.03ZM82.31 0L81.47-2.48L78-2.48L77.11 0L75.94 0L79.17-8.58L80.48-8.58L83.58 0L82.31 0ZM79.73-7.31L78.38-3.52L81.05-3.52L79.78-7.31L79.73-7.31ZM84.61-8.58L85.78-8.58L85.78-1.03L90.14-1.03L90.14 0L84.61 0L84.61-8.58ZM93.47-7.59L90.56-7.59L90.56-8.58L97.50-8.58L97.50-7.59L94.59-7.59L94.59 0L93.47 0L93.47-7.59ZM99.70-5.06L104.20-5.06L104.20-8.58L105.38-8.58L105.38 0L104.20 0L104.20-3.98L99.70-3.98L99.70 0L98.53 0L98.53-8.58L99.70-8.58L99.70-5.06Z" transform="translate(-0.890625, 8.8125)"></path></g></g></g></g></g><defs v-gra="od"></defs></svg>